<svg width="77" height="76" viewBox="0 0 77 76" fill="none" xmlns="http://www.w3.org/2000/svg">
<path d="M21.539 71.5159C14.8147 69.3882 10.0457 66.384 6.58642 61.8681C3.12714 57.3523 1.17189 51.4455 0.0188004 43.3729C-0.00626681 43.2331 -0.00626681 43.0871 0.0188004 42.9473C0.0188004 40.3242 0.933755 37.79 2.60073 35.7893C3.85409 34.2332 5.64013 33.1217 8.04032 32.2579C8.20952 30.5875 8.91767 29.0251 10.0582 27.8119C11.3931 26.4273 13.1352 25.5064 15.0215 25.1952C17.4781 22.7308 20.5927 21.0414 23.9768 20.3237C27.5865 19.5107 31.3466 19.7774 34.8121 21.0858C35.0315 21.1747 35.7459 21.5368 36.3914 21.867C36.4791 21.9051 36.5543 21.9687 36.6107 22.0449C38.7226 20.3681 41.2669 19.3265 43.9366 19.0534C45.7164 18.8692 47.5212 18.9962 49.2571 19.4408L57.7361 2.23487C58.5069 0.710537 59.7415 -0.750284 62.1229 0.431076C62.7621 0.742294 63.3073 1.21865 63.7021 1.81568C64.7926 3.50515 63.8776 4.68016 63.0755 6.13463L53.8758 21.5939C54.5651 22.083 55.1981 22.6546 55.7558 23.2961L55.8248 23.3787C56.7084 24.3949 57.3476 25.6144 57.6735 26.9291C58.4756 27.1578 59.2464 27.4182 59.9734 27.6976L70.627 9.68506C71.5168 8.23059 72.8579 6.87774 75.1516 8.24329C75.7657 8.60532 76.2734 9.12614 76.618 9.75493C77.5643 11.527 76.5679 12.6258 75.6279 14.004L64.4918 30.0985C65.5258 30.8225 66.4721 31.6799 67.2993 32.639C69.7057 35.2875 70.6834 38.9587 69.9251 42.471C69.9 42.5726 69.8687 42.6742 69.8248 42.7695C69.8687 42.9092 69.8937 43.049 69.8937 43.195C69.8937 43.2522 69.8937 43.3094 69.8937 43.3665C69.6305 49.8513 67.2993 56.0757 63.2509 61.106C59.566 65.5519 54.1828 69.2866 46.6376 71.5604H46.6V75.4538C46.6 75.7523 46.3556 76 46.0611 76H22.2785C21.8962 76 21.5892 75.6888 21.5829 75.3013V71.535H21.539V71.5159ZM51.5195 38.9904C50.7674 38.9904 50.1596 38.3743 50.1596 37.6122C50.1596 36.85 50.7674 36.2339 51.5195 36.2339H54.7406C55.4926 36.2339 56.1005 36.85 56.1005 37.6122C56.1005 38.3743 55.4926 38.9904 54.7406 38.9904H51.5195ZM50.7048 29.4633C51.3879 29.7745 51.6949 30.5812 51.3941 31.2735C51.087 31.9658 50.2912 32.277 49.6018 31.9721L46.6627 30.632C45.9796 30.3207 45.6725 29.5141 45.9733 28.8218C46.2804 28.1295 47.0763 27.8183 47.7656 28.1232L50.7048 29.4633ZM34.4111 30.2826C33.7092 30.0286 33.3394 29.2474 33.5838 28.5297C33.8345 27.8183 34.6053 27.4436 35.3135 27.6913C35.3511 27.704 35.3887 27.723 35.4263 27.7357L38.6537 29.0695C39.3493 29.3426 39.694 30.1366 39.4245 30.8416C39.155 31.5466 38.3717 31.8959 37.6761 31.6228C37.6635 31.6164 37.6447 31.6101 37.6322 31.6037L34.4111 30.2826ZM33.2329 38.9904C32.4809 38.9904 31.873 38.3743 31.873 37.6122C31.873 36.85 32.4809 36.2339 33.2329 36.2339H36.454C37.2061 36.2339 37.8139 36.85 37.8139 37.6122C37.8139 38.3743 37.2061 38.9904 36.454 38.9904H33.2329ZM22.266 32.3913C21.5766 32.7025 20.7682 32.3786 20.4611 31.68C20.1541 30.9813 20.4737 30.162 21.163 29.8507L24.1022 28.5106C24.7727 28.1676 25.5811 28.4407 25.9195 29.1203C26.2579 29.7999 25.9885 30.6193 25.3179 30.9622C25.2803 30.9813 25.2427 31.0004 25.1988 31.0131L22.266 32.3913ZM15.949 38.9904C15.197 38.9904 14.5891 38.3743 14.5891 37.6122C14.5891 36.85 15.197 36.2339 15.949 36.2339H19.1764C19.9285 36.2339 20.5363 36.85 20.5363 37.6122C20.5363 38.3743 19.9285 38.9904 19.1764 38.9904H15.949ZM3.24621 41.9184H67.2742C67.8382 39.2508 67.0799 36.4689 65.2438 34.4746C63.3637 32.2579 60.2742 30.4478 56.1506 29.3934C55.5929 29.2537 55.1855 28.7774 55.1229 28.1994C54.9913 27.0752 54.5213 26.0209 53.7755 25.1761L53.7128 25.1126C52.6099 23.8995 51.2249 22.9912 49.677 22.4768C47.9223 21.8607 46.0548 21.6447 44.2061 21.8416C41.831 22.0766 39.5812 23.0484 37.7763 24.6363C37.5257 24.8776 37.1873 25.011 36.8426 25.011C36.2472 24.8776 35.6832 24.649 35.1631 24.325C34.5928 24.0392 33.9661 23.6899 33.8345 23.6899C30.864 22.5657 27.6366 22.3434 24.5408 23.0548C21.5328 23.6899 18.7879 25.2396 16.6697 27.5007C16.4504 27.7484 16.1496 27.9072 15.8237 27.939C14.3823 28.0914 13.0412 28.7393 12.0197 29.7809C11.1612 30.6955 10.6786 31.9086 10.6724 33.1725C10.7162 33.8077 10.3277 34.392 9.72609 34.5825C7.36977 35.3257 5.70906 36.2403 4.67504 37.5232C3.74129 38.7935 3.24621 40.3369 3.24621 41.9184ZM60.6063 48.4603C60.7693 47.9522 61.3082 47.6791 61.8096 47.8443C62.3109 48.0094 62.5804 48.5556 62.4174 49.0637C62.4049 49.1145 62.3861 49.159 62.361 49.2035C61.8973 50.3531 61.3834 51.4836 60.8069 52.5824C60.2366 53.6748 59.6099 54.7355 58.9268 55.7581C58.6636 56.2217 58.0808 56.3805 57.6296 56.1138C57.1721 55.847 57.0154 55.2563 57.2787 54.799C57.3037 54.7546 57.3288 54.7165 57.3601 54.6784C58.0119 53.7066 58.6135 52.7031 59.1587 51.6678C59.7102 50.6325 60.2115 49.5782 60.6565 48.4921L60.6063 48.4603ZM55.361 57.3078C55.7057 56.9013 56.3136 56.8569 56.7084 57.2126C57.1032 57.5682 57.1533 58.178 56.8024 58.5781C56.2446 59.2514 55.6618 59.8929 55.0727 60.4835C54.4837 61.0742 53.9071 61.6077 53.2804 62.1285C52.8731 62.4779 52.2652 62.4334 51.9205 62.0206C51.5759 61.6077 51.6197 60.9916 52.0271 60.6423C52.5973 60.166 53.1614 59.6452 53.7128 59.0926C54.2643 58.54 54.8158 57.9239 55.3297 57.3078H55.361ZM8.5918 60.2993C11.6625 64.3515 16.0368 67.0699 22.197 69.0325H46.0924C52.9859 66.9175 57.9367 63.5195 61.2894 59.4483C64.7362 55.1865 66.8167 49.9529 67.2554 44.459H2.76366C3.86662 51.3312 5.65893 56.4504 8.5918 60.2993Z" fill="#E1B168"/>
<path fill-rule="evenodd" clip-rule="evenodd" d="M38.8668 4.79449C39.0297 4.59124 39.2616 4.45786 39.5185 4.4261C39.788 4.388 40.0637 4.46421 40.2768 4.64205C40.4773 4.80719 40.6089 5.04219 40.6403 5.3026C40.6779 5.57571 40.6027 5.85517 40.4335 6.07112C38.4469 8.59897 42.7083 11.3174 39.4934 15.2933C39.1488 15.7189 38.5284 15.7824 38.1085 15.4331C37.6949 15.0837 37.6385 14.4613 37.9706 14.0358C40.4209 11.0062 36.0404 8.491 38.8981 4.81354L38.8668 4.79449ZM29.4352 4.83894C29.5919 4.62935 29.8238 4.48327 30.0807 4.44516C30.3314 4.4134 30.582 4.47692 30.7888 4.62935C31.0019 4.78178 31.146 5.02314 31.1836 5.28354C31.215 5.5376 31.1523 5.79165 31.0019 6.00125C29.078 8.66884 32.694 11.2793 30.0995 15.179C29.9491 15.395 29.7235 15.5474 29.4728 15.5919C29.2096 15.6554 28.9339 15.5982 28.7145 15.4458C28.2633 15.1409 28.1442 14.5185 28.4451 14.0612C28.4451 14.0612 28.4451 14.0612 28.4451 14.0548C30.5382 10.9172 26.6277 8.67519 29.3913 4.83259L29.4352 4.83894ZM34.1541 4.83259C34.3045 4.61665 34.5427 4.47056 34.7996 4.43246C35.326 4.34354 35.8274 4.70557 35.9151 5.23908C35.9151 5.24543 35.9151 5.25179 35.9214 5.26449C35.9715 5.53125 35.9088 5.81071 35.7459 6.03301C33.5776 9.03722 37.8202 11.2094 34.7933 15.2298C34.6367 15.4394 34.3985 15.5728 34.1416 15.6046C33.8721 15.6554 33.5964 15.5855 33.3833 15.414C33.1765 15.2489 33.0449 15.0139 33.0073 14.7535C32.9634 14.4804 33.0386 14.2009 33.2016 13.985C35.4764 10.9553 31.1837 8.89114 34.1103 4.76273L34.1541 4.83259Z" fill="#E1B168"/>
</svg>
