<svg width="284" height="275" viewBox="0 0 284 275" fill="none" xmlns="http://www.w3.org/2000/svg">
<mask id="path-1-inside-1_1_9533" fill="white">
<path d="M131.308 8.3501C133.84 -2.78336 150.161 -2.78337 152.693 8.35009C154.842 17.7954 167.78 19.7884 172.825 11.4509C178.771 1.6234 194.293 6.52829 193.164 17.8778C192.206 27.5065 203.878 33.2903 211.325 26.8769C220.102 19.3173 233.306 28.6469 228.626 39.1016C224.655 47.971 233.918 56.9795 243.039 53.1179C253.789 48.5662 263.382 61.4073 255.609 69.9437C249.014 77.1858 254.961 88.5372 264.862 87.6054C276.532 86.5071 281.576 101.603 271.471 107.385C262.898 112.291 264.947 124.874 274.659 126.963C286.107 129.426 286.107 145.299 274.659 147.761C264.947 149.85 262.898 162.434 271.471 167.339C281.576 173.122 276.532 188.218 264.862 187.119C254.961 186.187 249.014 197.539 255.609 204.781C263.382 213.317 253.789 226.158 243.039 221.607C233.918 217.745 224.655 226.754 228.626 235.623C233.306 246.078 220.102 255.407 211.325 247.848C203.878 241.434 192.206 247.218 193.164 256.847C194.293 268.196 178.771 273.101 172.825 263.274C167.78 254.936 154.842 256.929 152.693 266.375C150.161 277.508 133.84 277.508 131.308 266.375C129.159 256.929 116.221 254.936 111.176 263.274C105.23 273.101 89.708 268.196 90.8373 256.847C91.7954 247.218 80.1232 241.434 72.6765 247.848C63.8988 255.407 50.6947 246.078 55.3751 235.623C59.3458 226.754 50.0827 217.745 40.9626 221.607C30.2124 226.158 20.6191 213.317 28.3924 204.781C34.9871 197.539 29.0398 186.187 19.139 187.119C7.46866 188.218 2.42514 173.122 12.5304 167.339C21.1035 162.434 19.0543 149.85 9.34196 147.761C-2.10617 145.299 -2.10617 129.426 9.34196 126.963C19.0543 124.874 21.1035 112.291 12.5305 107.385C2.42515 101.603 7.46866 86.5071 19.139 87.6054C29.0398 88.5372 34.9871 77.1858 28.3924 69.9437C20.6191 61.4073 30.2124 48.5662 40.9626 53.1179C50.0827 56.9795 59.3458 47.971 55.3751 39.1016C50.6947 28.6469 63.8988 19.3173 72.6765 26.8769C80.1232 33.2903 91.7954 27.5065 90.8373 17.8778C89.708 6.52829 105.23 1.62341 111.176 11.4509C116.221 19.7884 129.159 17.7954 131.308 8.3501Z"/>
<path d="M139.082 29.25C139.353 25.739 144.648 25.739 144.919 29.25C145.177 32.5809 150.104 32.832 150.718 29.5455C151.365 26.0814 156.631 26.6196 156.524 30.1389C156.422 33.4777 161.295 34.2284 162.259 31.0223C163.275 27.6429 168.454 28.7135 167.969 32.2026C167.508 35.5128 172.274 36.7547 173.577 33.6642C174.951 30.4066 179.987 31.9979 179.129 35.4185C178.316 38.6638 182.922 40.3833 184.55 37.4422C186.267 34.3421 191.104 36.4365 189.883 39.7513C188.725 42.8961 193.121 45.0744 195.057 42.315C197.097 39.4064 201.682 41.981 200.112 45.1535C198.623 48.1634 202.761 50.7767 204.982 48.2291C207.324 45.5438 211.607 48.5705 209.705 51.566C207.9 54.408 211.734 57.4276 214.217 55.1198C216.835 52.6872 220.77 56.1328 218.556 58.9185C216.455 61.5614 219.944 64.9543 222.661 62.9116C225.526 60.7584 229.069 64.5851 226.568 67.1305C224.194 69.5453 227.3 73.2743 230.222 71.519C233.302 69.6688 236.414 73.8347 233.653 76.1119C231.033 78.2723 233.721 82.2965 236.815 80.8479C240.078 79.3209 242.725 83.7804 239.734 85.7644C236.897 87.6467 239.137 91.922 242.37 90.7959C245.779 89.609 247.932 94.3131 244.745 95.9822C241.721 97.5657 243.489 102.045 246.826 101.254C250.343 100.42 251.979 105.317 248.63 106.653C245.452 107.921 246.729 112.556 250.132 112.108C253.72 111.636 254.821 116.673 251.346 117.661C248.049 118.598 248.821 123.338 252.255 123.238C255.873 123.134 256.427 128.255 252.865 128.885C249.485 129.482 249.744 134.273 253.169 134.524C256.779 134.788 256.779 139.937 253.169 140.201C249.744 140.451 249.485 145.243 252.865 145.84C256.427 146.47 255.873 151.591 252.255 151.486C248.821 151.387 248.049 156.126 251.346 157.064C254.821 158.052 253.72 163.089 250.132 162.617C246.729 162.169 245.452 166.804 248.63 168.071C251.979 169.407 250.343 174.304 246.826 173.47C243.489 172.679 241.721 177.159 244.745 178.742C247.932 180.412 245.779 185.116 242.37 183.929C239.137 182.803 236.897 187.078 239.734 188.96C242.725 190.944 240.078 195.404 236.815 193.877C233.721 192.428 231.033 196.452 233.653 198.613C236.414 200.89 233.302 205.056 230.222 203.206C227.3 201.45 224.194 205.179 226.568 207.594C229.069 210.14 225.526 213.966 222.661 211.813C219.944 209.77 216.455 213.163 218.556 215.806C220.77 218.592 216.835 222.037 214.217 219.605C211.734 217.297 207.9 220.317 209.705 223.159C211.607 226.154 207.324 229.181 204.982 226.496C202.761 223.948 198.623 226.561 200.112 229.571C201.682 232.744 197.097 235.318 195.057 232.41C193.121 229.65 188.725 231.829 189.883 234.973C191.104 238.288 186.267 240.382 184.55 237.282C182.922 234.341 178.316 236.061 179.129 239.306C179.987 242.727 174.951 244.318 173.577 241.06C172.274 237.97 167.508 239.212 167.969 242.522C168.454 246.011 163.275 247.082 162.259 243.702C161.295 240.496 156.422 241.247 156.524 244.586C156.631 248.105 151.365 248.643 150.718 245.179C150.104 241.893 145.177 242.144 144.919 245.475C144.648 248.986 139.353 248.986 139.082 245.475C138.824 242.144 133.897 241.893 133.283 245.179C132.636 248.643 127.37 248.105 127.478 244.586C127.58 241.247 122.706 240.496 121.742 243.702C120.726 247.082 115.547 246.011 116.032 242.522C116.493 239.212 111.727 237.97 110.424 241.06C109.05 244.318 104.014 242.727 104.872 239.306C105.685 236.061 101.079 234.341 99.4509 237.282C97.7346 240.382 92.8975 238.288 94.118 234.973C95.2759 231.829 90.8798 229.65 88.9443 232.41C86.9042 235.318 82.3187 232.744 83.8888 229.571C85.3784 226.561 81.2404 223.948 79.019 226.496C76.6774 229.181 72.3938 226.154 74.2963 223.159C76.1012 220.317 72.2668 217.297 69.7837 219.605C67.1664 222.037 63.2315 218.592 65.4455 215.806C67.546 213.163 64.0572 209.77 61.3397 211.813C58.4752 213.966 54.9323 210.14 57.4336 207.594C59.8066 205.179 56.7016 201.45 53.7793 203.206C50.6992 205.056 47.5869 200.89 50.3481 198.613C52.9677 196.452 50.2805 192.428 47.1856 193.877C43.9234 195.404 41.276 190.944 44.2668 188.96C47.1043 187.078 44.8643 182.803 41.6307 183.929C38.2222 185.116 36.0686 180.412 39.2563 178.742C42.2806 177.159 40.5124 172.679 37.1754 173.47C33.6581 174.304 32.0219 169.407 35.3715 168.071C38.5494 166.804 37.2724 162.169 33.8687 162.617C30.281 163.089 29.1801 158.052 32.6549 157.064C35.9516 156.126 35.1798 151.387 31.7466 151.486C28.1278 151.591 27.5744 146.47 31.1364 145.84C34.5158 145.243 34.2576 140.451 30.8325 140.201C27.2224 139.937 27.2224 134.788 30.8325 134.524C34.2576 134.273 34.5158 129.482 31.1364 128.885C27.5744 128.255 28.1278 123.134 31.7466 123.238C35.1798 123.338 35.9516 118.598 32.6549 117.661C29.1801 116.673 30.281 111.636 33.8687 112.108C37.2724 112.556 38.5494 107.921 35.3715 106.653C32.0219 105.317 33.6581 100.42 37.1754 101.254C40.5124 102.045 42.2806 97.5657 39.2563 95.9822C36.0686 94.3131 38.2222 89.609 41.6307 90.7959C44.8643 91.922 47.1043 87.6467 44.2668 85.7644C41.276 83.7804 43.9234 79.3209 47.1856 80.8479C50.2805 82.2965 52.9677 78.2723 50.3481 76.1119C47.5869 73.8347 50.6991 69.6688 53.7793 71.519C56.7016 73.2743 59.8066 69.5454 57.4336 67.1305C54.9322 64.5851 58.4752 60.7584 61.3397 62.9116C64.0572 64.9543 67.546 61.5614 65.4455 58.9185C63.2315 56.1328 67.1664 52.6872 69.7837 55.1198C72.2668 57.4276 76.1012 54.408 74.2963 51.566C72.3938 48.5705 76.6774 45.5438 79.019 48.2291C81.2404 50.7767 85.3784 48.1634 83.8888 45.1535C82.3187 41.981 86.9042 39.4064 88.9443 42.315C90.8798 45.0745 95.2759 42.8961 94.118 39.7513C92.8975 36.4366 97.7346 34.3421 99.4509 37.4422C101.079 40.3833 105.685 38.6638 104.872 35.4185C104.014 31.9979 109.05 30.4066 110.424 33.6642C111.727 36.7547 116.493 35.5128 116.032 32.2026C115.547 28.7135 120.726 27.6429 121.742 31.0223C122.706 34.2284 127.58 33.4777 127.478 30.1389C127.37 26.6196 132.636 26.0814 133.283 29.5455C133.897 32.832 138.824 32.5809 139.082 29.25Z"/>
<path d="M138.095 47.5574C139.02 43.4908 144.981 43.4908 145.906 47.5574L149.957 65.3673C150.742 68.8172 155.467 69.5452 157.31 66.4999L166.822 50.779C168.993 47.1895 174.663 48.981 174.25 53.1264L172.444 71.2821C172.094 74.799 176.357 76.9115 179.077 74.569L193.119 62.476C196.325 59.7148 201.148 63.1225 199.438 66.9411L191.951 83.6652C190.501 86.9048 193.884 90.1952 197.215 88.7848L214.412 81.5034C218.338 79.8409 221.842 84.5311 219.003 87.6491L206.568 101.305C204.16 103.95 206.332 108.096 209.948 107.756L228.617 105.999C232.88 105.598 234.722 111.111 231.031 113.223L214.866 122.474C211.734 124.265 212.483 128.861 216.03 129.625L234.344 133.564C238.525 134.464 238.525 140.261 234.344 141.16L216.03 145.1C212.483 145.863 211.734 150.459 214.866 152.251L231.031 161.501C234.722 163.613 232.88 169.127 228.617 168.726L209.948 166.969C206.332 166.629 204.16 170.775 206.568 173.42L219.003 187.075C221.842 190.193 218.338 194.884 214.412 193.221L197.215 185.94C193.884 184.529 190.501 187.82 191.951 191.059L199.438 207.783C201.148 211.602 196.325 215.01 193.119 212.249L179.077 200.156C176.357 197.813 172.094 199.926 172.444 203.442L174.25 221.598C174.663 225.744 168.993 227.535 166.822 223.946L157.31 208.225C155.467 205.179 150.742 205.907 149.957 209.357L145.906 227.167C144.981 231.234 139.02 231.234 138.095 227.167L134.044 209.357C133.259 205.907 128.533 205.179 126.691 208.225L117.179 223.945C115.007 227.535 109.338 225.744 109.75 221.598L111.557 203.442C111.907 199.926 107.644 197.813 104.924 200.156L90.8822 212.248C87.6761 215.01 82.8533 211.602 84.5628 207.783L92.0499 191.059C93.5003 187.82 90.1169 184.529 86.7857 185.94L69.5889 193.221C65.6624 194.884 62.1584 190.193 64.9976 187.075L77.4324 173.42C79.8411 170.775 77.6689 166.629 74.0526 166.969L55.3838 168.726C51.1212 169.127 49.279 163.613 52.97 161.501L69.1352 152.251C72.2666 150.459 71.5181 145.863 67.9706 145.1L49.6573 141.161C45.4758 140.261 45.4758 134.464 49.6573 133.564L67.9706 129.625C71.5181 128.861 72.2666 124.265 69.1353 122.474L52.97 113.223C49.279 111.111 51.1212 105.598 55.3838 105.999L74.0526 107.756C77.6689 108.096 79.8411 103.95 77.4324 101.305L64.9976 87.6491C62.1584 84.5312 65.6624 79.8409 69.5889 81.5034L86.7857 88.7848C90.1169 90.1952 93.5003 86.9048 92.0499 83.6652L84.5628 66.9411C82.8533 63.1225 87.6761 59.7148 90.8822 62.476L104.924 74.569C107.644 76.9115 111.907 74.799 111.557 71.2821L109.75 53.1265C109.338 48.981 115.007 47.1894 117.179 50.779L126.691 66.4999C128.533 69.5452 133.259 68.8173 134.044 65.3673L138.095 47.5574Z"/>
</mask>
<path d="M131.308 8.3501C133.84 -2.78336 150.161 -2.78337 152.693 8.35009C154.842 17.7954 167.78 19.7884 172.825 11.4509C178.771 1.6234 194.293 6.52829 193.164 17.8778C192.206 27.5065 203.878 33.2903 211.325 26.8769C220.102 19.3173 233.306 28.6469 228.626 39.1016C224.655 47.971 233.918 56.9795 243.039 53.1179C253.789 48.5662 263.382 61.4073 255.609 69.9437C249.014 77.1858 254.961 88.5372 264.862 87.6054C276.532 86.5071 281.576 101.603 271.471 107.385C262.898 112.291 264.947 124.874 274.659 126.963C286.107 129.426 286.107 145.299 274.659 147.761C264.947 149.85 262.898 162.434 271.471 167.339C281.576 173.122 276.532 188.218 264.862 187.119C254.961 186.187 249.014 197.539 255.609 204.781C263.382 213.317 253.789 226.158 243.039 221.607C233.918 217.745 224.655 226.754 228.626 235.623C233.306 246.078 220.102 255.407 211.325 247.848C203.878 241.434 192.206 247.218 193.164 256.847C194.293 268.196 178.771 273.101 172.825 263.274C167.78 254.936 154.842 256.929 152.693 266.375C150.161 277.508 133.84 277.508 131.308 266.375C129.159 256.929 116.221 254.936 111.176 263.274C105.23 273.101 89.708 268.196 90.8373 256.847C91.7954 247.218 80.1232 241.434 72.6765 247.848C63.8988 255.407 50.6947 246.078 55.3751 235.623C59.3458 226.754 50.0827 217.745 40.9626 221.607C30.2124 226.158 20.6191 213.317 28.3924 204.781C34.9871 197.539 29.0398 186.187 19.139 187.119C7.46866 188.218 2.42514 173.122 12.5304 167.339C21.1035 162.434 19.0543 149.85 9.34196 147.761C-2.10617 145.299 -2.10617 129.426 9.34196 126.963C19.0543 124.874 21.1035 112.291 12.5305 107.385C2.42515 101.603 7.46866 86.5071 19.139 87.6054C29.0398 88.5372 34.9871 77.1858 28.3924 69.9437C20.6191 61.4073 30.2124 48.5662 40.9626 53.1179C50.0827 56.9795 59.3458 47.971 55.3751 39.1016C50.6947 28.6469 63.8988 19.3173 72.6765 26.8769C80.1232 33.2903 91.7954 27.5065 90.8373 17.8778C89.708 6.52829 105.23 1.62341 111.176 11.4509C116.221 19.7884 129.159 17.7954 131.308 8.3501Z" stroke="#E1B168" stroke-width="4" mask="url(#path-1-inside-1_1_9533)"/>
<path d="M139.082 29.25C139.353 25.739 144.648 25.739 144.919 29.25C145.177 32.5809 150.104 32.832 150.718 29.5455C151.365 26.0814 156.631 26.6196 156.524 30.1389C156.422 33.4777 161.295 34.2284 162.259 31.0223C163.275 27.6429 168.454 28.7135 167.969 32.2026C167.508 35.5128 172.274 36.7547 173.577 33.6642C174.951 30.4066 179.987 31.9979 179.129 35.4185C178.316 38.6638 182.922 40.3833 184.55 37.4422C186.267 34.3421 191.104 36.4365 189.883 39.7513C188.725 42.8961 193.121 45.0744 195.057 42.315C197.097 39.4064 201.682 41.981 200.112 45.1535C198.623 48.1634 202.761 50.7767 204.982 48.2291C207.324 45.5438 211.607 48.5705 209.705 51.566C207.9 54.408 211.734 57.4276 214.217 55.1198C216.835 52.6872 220.77 56.1328 218.556 58.9185C216.455 61.5614 219.944 64.9543 222.661 62.9116C225.526 60.7584 229.069 64.5851 226.568 67.1305C224.194 69.5453 227.3 73.2743 230.222 71.519C233.302 69.6688 236.414 73.8347 233.653 76.1119C231.033 78.2723 233.721 82.2965 236.815 80.8479C240.078 79.3209 242.725 83.7804 239.734 85.7644C236.897 87.6467 239.137 91.922 242.37 90.7959C245.779 89.609 247.932 94.3131 244.745 95.9822C241.721 97.5657 243.489 102.045 246.826 101.254C250.343 100.42 251.979 105.317 248.63 106.653C245.452 107.921 246.729 112.556 250.132 112.108C253.72 111.636 254.821 116.673 251.346 117.661C248.049 118.598 248.821 123.338 252.255 123.238C255.873 123.134 256.427 128.255 252.865 128.885C249.485 129.482 249.744 134.273 253.169 134.524C256.779 134.788 256.779 139.937 253.169 140.201C249.744 140.451 249.485 145.243 252.865 145.84C256.427 146.47 255.873 151.591 252.255 151.486C248.821 151.387 248.049 156.126 251.346 157.064C254.821 158.052 253.72 163.089 250.132 162.617C246.729 162.169 245.452 166.804 248.63 168.071C251.979 169.407 250.343 174.304 246.826 173.47C243.489 172.679 241.721 177.159 244.745 178.742C247.932 180.412 245.779 185.116 242.37 183.929C239.137 182.803 236.897 187.078 239.734 188.96C242.725 190.944 240.078 195.404 236.815 193.877C233.721 192.428 231.033 196.452 233.653 198.613C236.414 200.89 233.302 205.056 230.222 203.206C227.3 201.45 224.194 205.179 226.568 207.594C229.069 210.14 225.526 213.966 222.661 211.813C219.944 209.77 216.455 213.163 218.556 215.806C220.77 218.592 216.835 222.037 214.217 219.605C211.734 217.297 207.9 220.317 209.705 223.159C211.607 226.154 207.324 229.181 204.982 226.496C202.761 223.948 198.623 226.561 200.112 229.571C201.682 232.744 197.097 235.318 195.057 232.41C193.121 229.65 188.725 231.829 189.883 234.973C191.104 238.288 186.267 240.382 184.55 237.282C182.922 234.341 178.316 236.061 179.129 239.306C179.987 242.727 174.951 244.318 173.577 241.06C172.274 237.97 167.508 239.212 167.969 242.522C168.454 246.011 163.275 247.082 162.259 243.702C161.295 240.496 156.422 241.247 156.524 244.586C156.631 248.105 151.365 248.643 150.718 245.179C150.104 241.893 145.177 242.144 144.919 245.475C144.648 248.986 139.353 248.986 139.082 245.475C138.824 242.144 133.897 241.893 133.283 245.179C132.636 248.643 127.37 248.105 127.478 244.586C127.58 241.247 122.706 240.496 121.742 243.702C120.726 247.082 115.547 246.011 116.032 242.522C116.493 239.212 111.727 237.97 110.424 241.06C109.05 244.318 104.014 242.727 104.872 239.306C105.685 236.061 101.079 234.341 99.4509 237.282C97.7346 240.382 92.8975 238.288 94.118 234.973C95.2759 231.829 90.8798 229.65 88.9443 232.41C86.9042 235.318 82.3187 232.744 83.8888 229.571C85.3784 226.561 81.2404 223.948 79.019 226.496C76.6774 229.181 72.3938 226.154 74.2963 223.159C76.1012 220.317 72.2668 217.297 69.7837 219.605C67.1664 222.037 63.2315 218.592 65.4455 215.806C67.546 213.163 64.0572 209.77 61.3397 211.813C58.4752 213.966 54.9323 210.14 57.4336 207.594C59.8066 205.179 56.7016 201.45 53.7793 203.206C50.6992 205.056 47.5869 200.89 50.3481 198.613C52.9677 196.452 50.2805 192.428 47.1856 193.877C43.9234 195.404 41.276 190.944 44.2668 188.96C47.1043 187.078 44.8643 182.803 41.6307 183.929C38.2222 185.116 36.0686 180.412 39.2563 178.742C42.2806 177.159 40.5124 172.679 37.1754 173.47C33.6581 174.304 32.0219 169.407 35.3715 168.071C38.5494 166.804 37.2724 162.169 33.8687 162.617C30.281 163.089 29.1801 158.052 32.6549 157.064C35.9516 156.126 35.1798 151.387 31.7466 151.486C28.1278 151.591 27.5744 146.47 31.1364 145.84C34.5158 145.243 34.2576 140.451 30.8325 140.201C27.2224 139.937 27.2224 134.788 30.8325 134.524C34.2576 134.273 34.5158 129.482 31.1364 128.885C27.5744 128.255 28.1278 123.134 31.7466 123.238C35.1798 123.338 35.9516 118.598 32.6549 117.661C29.1801 116.673 30.281 111.636 33.8687 112.108C37.2724 112.556 38.5494 107.921 35.3715 106.653C32.0219 105.317 33.6581 100.42 37.1754 101.254C40.5124 102.045 42.2806 97.5657 39.2563 95.9822C36.0686 94.3131 38.2222 89.609 41.6307 90.7959C44.8643 91.922 47.1043 87.6467 44.2668 85.7644C41.276 83.7804 43.9234 79.3209 47.1856 80.8479C50.2805 82.2965 52.9677 78.2723 50.3481 76.1119C47.5869 73.8347 50.6991 69.6688 53.7793 71.519C56.7016 73.2743 59.8066 69.5454 57.4336 67.1305C54.9322 64.5851 58.4752 60.7584 61.3397 62.9116C64.0572 64.9543 67.546 61.5614 65.4455 58.9185C63.2315 56.1328 67.1664 52.6872 69.7837 55.1198C72.2668 57.4276 76.1012 54.408 74.2963 51.566C72.3938 48.5705 76.6774 45.5438 79.019 48.2291C81.2404 50.7767 85.3784 48.1634 83.8888 45.1535C82.3187 41.981 86.9042 39.4064 88.9443 42.315C90.8798 45.0745 95.2759 42.8961 94.118 39.7513C92.8975 36.4366 97.7346 34.3421 99.4509 37.4422C101.079 40.3833 105.685 38.6638 104.872 35.4185C104.014 31.9979 109.05 30.4066 110.424 33.6642C111.727 36.7547 116.493 35.5128 116.032 32.2026C115.547 28.7135 120.726 27.6429 121.742 31.0223C122.706 34.2284 127.58 33.4777 127.478 30.1389C127.37 26.6196 132.636 26.0814 133.283 29.5455C133.897 32.832 138.824 32.5809 139.082 29.25Z" stroke="#E1B168" stroke-width="4" mask="url(#path-1-inside-1_1_9533)"/>
<path d="M138.095 47.5574C139.02 43.4908 144.981 43.4908 145.906 47.5574L149.957 65.3673C150.742 68.8172 155.467 69.5452 157.31 66.4999L166.822 50.779C168.993 47.1895 174.663 48.981 174.25 53.1264L172.444 71.2821C172.094 74.799 176.357 76.9115 179.077 74.569L193.119 62.476C196.325 59.7148 201.148 63.1225 199.438 66.9411L191.951 83.6652C190.501 86.9048 193.884 90.1952 197.215 88.7848L214.412 81.5034C218.338 79.8409 221.842 84.5311 219.003 87.6491L206.568 101.305C204.16 103.95 206.332 108.096 209.948 107.756L228.617 105.999C232.88 105.598 234.722 111.111 231.031 113.223L214.866 122.474C211.734 124.265 212.483 128.861 216.03 129.625L234.344 133.564C238.525 134.464 238.525 140.261 234.344 141.16L216.03 145.1C212.483 145.863 211.734 150.459 214.866 152.251L231.031 161.501C234.722 163.613 232.88 169.127 228.617 168.726L209.948 166.969C206.332 166.629 204.16 170.775 206.568 173.42L219.003 187.075C221.842 190.193 218.338 194.884 214.412 193.221L197.215 185.94C193.884 184.529 190.501 187.82 191.951 191.059L199.438 207.783C201.148 211.602 196.325 215.01 193.119 212.249L179.077 200.156C176.357 197.813 172.094 199.926 172.444 203.442L174.25 221.598C174.663 225.744 168.993 227.535 166.822 223.946L157.31 208.225C155.467 205.179 150.742 205.907 149.957 209.357L145.906 227.167C144.981 231.234 139.02 231.234 138.095 227.167L134.044 209.357C133.259 205.907 128.533 205.179 126.691 208.225L117.179 223.945C115.007 227.535 109.338 225.744 109.75 221.598L111.557 203.442C111.907 199.926 107.644 197.813 104.924 200.156L90.8822 212.248C87.6761 215.01 82.8533 211.602 84.5628 207.783L92.0499 191.059C93.5003 187.82 90.1169 184.529 86.7857 185.94L69.5889 193.221C65.6624 194.884 62.1584 190.193 64.9976 187.075L77.4324 173.42C79.8411 170.775 77.6689 166.629 74.0526 166.969L55.3838 168.726C51.1212 169.127 49.279 163.613 52.97 161.501L69.1352 152.251C72.2666 150.459 71.5181 145.863 67.9706 145.1L49.6573 141.161C45.4758 140.261 45.4758 134.464 49.6573 133.564L67.9706 129.625C71.5181 128.861 72.2666 124.265 69.1353 122.474L52.97 113.223C49.279 111.111 51.1212 105.598 55.3838 105.999L74.0526 107.756C77.6689 108.096 79.8411 103.95 77.4324 101.305L64.9976 87.6491C62.1584 84.5312 65.6624 79.8409 69.5889 81.5034L86.7857 88.7848C90.1169 90.1952 93.5003 86.9048 92.0499 83.6652L84.5628 66.9411C82.8533 63.1225 87.6761 59.7148 90.8822 62.476L104.924 74.569C107.644 76.9115 111.907 74.799 111.557 71.2821L109.75 53.1265C109.338 48.981 115.007 47.1894 117.179 50.779L126.691 66.4999C128.533 69.5452 133.259 68.8173 134.044 65.3673L138.095 47.5574Z" stroke="#E1B168" stroke-width="4" mask="url(#path-1-inside-1_1_9533)"/>
</svg>
