<svg width="38" height="36" viewBox="0 0 38 36" fill="none" xmlns="http://www.w3.org/2000/svg">
<path d="M26.0435 10.9563H32.2946C32.5285 10.9547 32.7573 11.0286 32.9511 11.1683C33.1449 11.3079 33.2946 11.5069 33.3804 11.7389L35.4348 17.2172" stroke="#E1B168" stroke-width="2" stroke-linecap="round" stroke-linejoin="round"/>
<path d="M2.56494 20.3477H26.0433" stroke="#E1B168" stroke-width="2" stroke-linecap="round" stroke-linejoin="round"/>
<path d="M27.9998 30.5215C29.9448 30.5215 31.5215 28.9448 31.5215 26.9998C31.5215 25.0548 29.9448 23.478 27.9998 23.478C26.0548 23.478 24.478 25.0548 24.478 26.9998C24.478 28.9448 26.0548 30.5215 27.9998 30.5215Z" stroke="#E1B168" stroke-width="2" stroke-linecap="round" stroke-linejoin="round"/>
<path d="M10.0003 30.5215C11.9453 30.5215 13.522 28.9448 13.522 26.9998C13.522 25.0548 11.9453 23.478 10.0003 23.478C8.05526 23.478 6.47852 25.0548 6.47852 26.9998C6.47852 28.9448 8.05526 30.5215 10.0003 30.5215Z" stroke="#E1B168" stroke-width="2" stroke-linecap="round" stroke-linejoin="round"/>
<path d="M24.4785 26.6084H13.522" stroke="#E1B168" stroke-width="2" stroke-linecap="round" stroke-linejoin="round"/>
<path d="M6.0867 26.6087H3.73886C3.42752 26.6087 3.12893 26.4902 2.90877 26.2792C2.68862 26.0682 2.56494 25.7821 2.56494 25.4837V9.73365C2.56494 9.43528 2.68862 9.14913 2.90877 8.93815C3.12893 8.72717 3.42752 8.60864 3.73886 8.60864H26.0433V23.6837" stroke="#E1B168" stroke-width="2" stroke-linecap="round" stroke-linejoin="round"/>
<path d="M26.0435 17.217H35.4348V25.5649C35.4348 25.8417 35.3111 26.1071 35.091 26.3028C34.8708 26.4985 34.5722 26.6084 34.2609 26.6084H32.3044" stroke="#E1B168" stroke-width="2" stroke-linecap="round" stroke-linejoin="round"/>
</svg>
