<svg width="18" height="17" viewBox="0 0 18 17" fill="none" xmlns="http://www.w3.org/2000/svg">
<path d="M14.1744 16.5519C14.0481 16.5524 13.9249 16.5137 13.8223 16.4412L8.99906 13.0009L4.17585 16.4412C4.0728 16.5148 3.94866 16.5542 3.82136 16.5537C3.69407 16.5533 3.57022 16.513 3.46772 16.4387C3.36522 16.3644 3.28938 16.26 3.25117 16.1406C3.21296 16.0211 3.21436 15.8928 3.25515 15.7741L5.13629 10.2922L0.260942 7.00269C0.155339 6.93152 0.0756353 6.82899 0.0334775 6.71007C-0.00868039 6.59116 -0.0110835 6.4621 0.0266195 6.34175C0.0643224 6.22139 0.140155 6.11606 0.243038 6.04112C0.345922 5.96619 0.470463 5.9256 0.598466 5.92527H6.61314L8.42827 0.429284C8.46737 0.310628 8.54367 0.207206 8.64622 0.133856C8.74876 0.0605054 8.87228 0.0209961 8.99906 0.0209961C9.12584 0.0209961 9.24937 0.0605054 9.35191 0.133856C9.45446 0.207206 9.53075 0.310628 9.56985 0.429284L11.385 5.92711H17.3997C17.5278 5.92705 17.6526 5.96736 17.7558 6.04215C17.859 6.11694 17.9352 6.22227 17.9731 6.34271C18.011 6.46316 18.0088 6.59239 17.9667 6.71148C17.9246 6.83058 17.8448 6.93328 17.7391 7.00454L12.8618 10.2922L14.7418 15.7727C14.7723 15.8614 14.7809 15.956 14.7668 16.0486C14.7528 16.1412 14.7166 16.2293 14.6611 16.3054C14.6057 16.3815 14.5327 16.4436 14.448 16.4865C14.3634 16.5293 14.2696 16.5518 14.1744 16.5519Z" fill="#E1B168"/>
</svg>
